<svg xmlns="http://www.w3.org/2000/svg" x="0px" y="0px"
width="34" height="34"
viewBox="0 0 172 172"
style=" fill:#000000;"><g fill="none" fill-rule="nonzero" stroke="none" stroke-width="1" stroke-linecap="butt" stroke-linejoin="miter" stroke-miterlimit="10" stroke-dasharray="" stroke-dashoffset="0" font-family="none" font-weight="none" font-size="none" text-anchor="none" style="mix-blend-mode: normal"><path d="M0,172v-172h172v172z" fill="none"></path><g fill="#f1c40f"><path d="M86,3.44c-18.97375,0 -34.4,15.42625 -34.4,34.4v6.88h-27.1975l-14.5125,127.28h152.22l-14.5125,-127.28h-20.3175v20.64c0,5.6975 -4.6225,10.32 -10.32,10.32c-0.76594,0 -1.54531,-0.05375 -2.2575,-0.215c-4.60906,-1.03469 -8.0625,-5.17344 -8.0625,-10.105c0,-4.47469 2.88906,-8.25062 6.88,-9.675v9.675c0,1.89469 1.53188,3.44 3.44,3.44c1.90813,0 3.44,-1.54531 3.44,-3.44v-27.52c0,-18.97375 -15.42625,-34.4 -34.4,-34.4zM86,10.32c15.17094,0 27.52,12.34906 27.52,27.52v6.88h-48.16v20.64c0,5.6975 -4.6225,10.32 -10.32,10.32c-0.76594,0 -1.54531,-0.05375 -2.2575,-0.215c-4.6225,-1.03469 -8.0625,-5.17344 -8.0625,-10.105c0,-4.47469 2.88906,-8.25062 6.88,-9.675v9.675c0,1.89469 1.54531,3.44 3.44,3.44c1.89469,0 3.44,-1.54531 3.44,-3.44v-27.52c0,-15.17094 12.34906,-27.52 27.52,-27.52z"></path></g></g></svg>